# xmcd
# 
# Track frame offsets:
#     150
#     22782
#     51710
#     77805
#     100430
#     121787
#     143442
#     167827
#     196022
#     218180
#     246087
# 
# Disc length: 3633
# 
# Revision: 11
# Processed by: cddbd v1.5.2PL0 Copyright (c) Steve Scherf et al.
# Submitted via: fre:ac v1.0.31
# 
DISCID=8f0e2f0b
DTITLE=Larry Carlton - Larry and Lee
DYEAR=1995
DGENRE=Jazz
TTITLE0=Crosstown Kids
TTITLE1=Low Steppin'
TTITLE2=L.A. Underground
TTITLE3=Closed Door Jam
TTITLE4=After The Rain
TTITLE5=Remembering J.P.
TTITLE6=Fun In The Dark
TTITLE7=Lots About Nothin'
TTITLE8=Take That
TTITLE9=Up And Adam
TTITLE10=Reflection Of A Guitar Player
EXTD=YEAR: 1995
EXTT0=
EXTT1=
EXTT2=
EXTT3=
EXTT4=
EXTT5=
EXTT6=
EXTT7=
EXTT8=
EXTT9=
EXTT10=
PLAYORDER=
